<svg width="29" height="33" viewBox="0 0 29 33" fill="none" xmlns="http://www.w3.org/2000/svg">
<path fill-rule="evenodd" clip-rule="evenodd" d="M14.2234 32.3483C6.57009 32.3483 0.395996 26.1545 0.395996 18.4768V0.798828H28.0508V18.4768C28.0508 26.1545 21.8124 32.3483 14.2234 32.3483ZM2.71128 3.12149V18.4768C2.71128 24.8641 7.85636 30.0256 14.2234 30.0256C20.5904 30.0256 25.7355 24.8641 25.7355 18.4768V3.12149H2.71128Z" fill="#FE1A58"/>
<path d="M15.3812 1.96021H13.0659V30.9934H15.3812V1.96021Z" fill="#FE1A58"/>
<path fill-rule="evenodd" clip-rule="evenodd" d="M13.3843 11.5667L24.1166 0.860726L25.763 2.50308L15.0307 13.209L13.3843 11.5667Z" fill="#FE1A58"/>
<path fill-rule="evenodd" clip-rule="evenodd" d="M13.3501 19.4541L26.1289 6.70679L27.7753 8.34914L14.9965 21.0965L13.3501 19.4541Z" fill="#FE1A58"/>
<path fill-rule="evenodd" clip-rule="evenodd" d="M13.377 27.1201L26.1557 14.3728L27.8021 16.0152L15.0234 28.7625L13.377 27.1201Z" fill="#FE1A58"/>
</svg>
